<?xml version="1.0" encoding="UTF-8"?>
<svg id="Horizontal" xmlns="http://www.w3.org/2000/svg" viewBox="0 0 206 77.4">
  <defs>
    <style>
      .cls-1 {
        font-family: TwCenMT-Regular, 'Tw Cen MT';
        font-size: 80px;
      }

      .cls-1, .cls-2 {
        fill: #81a4ef;
      }
    </style>
  </defs>
  <text class="cls-1" transform="translate(60 55.33)"><tspan x="0" y="0">ctify</tspan></text>
  <path class="cls-2" d="M25.47,26.81c-3.06,11.32-6.94,22.36-11.3,33.23-1.88,4.4-3.62,8.71-6.01,12.93-.82,1.34-1.24,2.23-2.56,3.5-1.28,1.3-3.74,1.32-4.79-.4-2.89-4.97,2.71-19.21,4.34-24.82,3.69-11.06,7.23-22.33,11.23-33.32,1.71-4.51,3.37-8.9,5.86-13.13.86-1.4,1.97-3.14,3.65-4.16,3.51-2.12,6.75,1.48,8.02,4.47,4.05,9.01,6.35,21.15,9.01,30.63,3,10.56,7.44,29.69,16.07,36.39,3.28,2.29,8.71,2.24,11.66-.72.14-.18.42-.2.59-.05.14.13.17.33.08.49-.62,1.13-1.63,1.97-2.7,2.62-3.92,2.33-9.18,2.07-12.89-.74-13.81-11.09-18.03-33.72-22.2-50.01-1.08-4.51-2.12-9.05-3.46-13.28-.61-1.79-1.23-3.73-2.35-5.15-.07-.08-.11-.11-.06-.09.04,0,.18.07.34.04.35.01.5-.13.46-.1-.73.47-1.39,1.38-2.1,2.33-7.39,11.45-12.59,24.75-16.54,37.85-1.89,6.67-3.38,13.48-4.29,20.32-.33,2.5-.69,5.75-.32,7.56-.55-1-2.25-1.39-3.15-.67,2.94-4.43,5.13-9.68,7.44-14.54,4.91-10.5,9.66-21.23,15.03-31.56.26-.52,1.11-.21.94.37h0Z"/>
</svg>